<?xml version="1.0" encoding="UTF-8"?>
<svg width="240px" height="55px" viewBox="0 0 240 55" version="1.1" xmlns="http://www.w3.org/2000/svg" xmlns:xlink="http://www.w3.org/1999/xlink">
    <!-- Generator: sketchtool 52.5 (67469) - http://www.bohemiancoding.com/sketch -->
    <title>2D6A98E9-B8A3-4FBC-9EEC-0BF2F1A99DC0</title>
    <desc>Created with sketchtool.</desc>
    <g id="Design" stroke="none" stroke-width="1" fill="none" fill-rule="evenodd">
        <g id="Website-Design" transform="translate(-596.000000, -22.000000)">
            <g id="Header">
                <g id="LOGO" transform="translate(596.000000, 22.000000)">
                    <path d="M0.5,55 C41.0608651,16.5820193 51.5,34.3035692 51.5,34.3035692 L31.1614099,0 L0.5,55" id="Fill-1" fill="#335897"></path>
                    <path d="M81.3482972,31.9576589 C81.7747547,32.9020287 82.4337251,33.5913621 83.3241066,34.0233972 C84.2111822,34.4610872 85.4459254,34.6782357 87.0426615,34.6782357 L88.2641811,34.6782357 L88.5,30.4308334 C87.7627906,30.4308334 87.2746235,30.266841 87.0129086,29.9450767 C86.7627643,29.6131335 86.6327334,28.9368064 86.6327334,27.9087439 L86.6327334,18.7975543 C86.6327334,16.2884711 85.9153592,14.3595815 84.4706932,13.0137132 C83.0359448,11.6672793 80.7245894,11 77.5443407,11 C74.3723566,11 72.0180249,11.6452251 70.4852023,12.9424613 C68.9529307,14.2306496 68.1876213,16.0289107 68.1876213,18.3242384 L68.1876213,19.0135718 L73.6632471,19.0135718 L73.6632471,18.1167032 C73.6632471,17.1276596 73.924411,16.3732947 74.4335152,15.8485191 C74.9536391,15.3310949 75.883691,15.0715346 77.251771,15.0715346 C79.6661594,15.0573973 80.8788634,15.9361702 80.8788634,17.7061568 C80.8788634,18.56231 80.4882196,19.2380717 79.7091358,19.7193044 C78.9256441,20.2090196 77.5740935,20.7541528 75.6385055,21.3750619 C72.4577058,22.3680639 70.3094401,23.418746 69.1893005,24.4965717 C68.0619982,25.5857072 67.5,27.029971 67.5,28.8304941 C67.5,30.6287552 68.1159941,32.1024245 69.3551451,33.2599844 C70.594847,34.4175444 72.1089363,35 73.9023718,35 C75.6869917,35 77.2082437,34.7076412 78.464475,34.1325369 C79.7168495,33.5557362 80.6772052,32.8279494 81.3482972,31.9576589 M73.9883245,26.3954902 C74.4285564,25.8650597 75.5128824,25.2735562 77.251771,24.6419029 C78.981293,24.0017672 80.1912421,23.4023468 80.8788634,22.8498622 L80.8788634,28.5901605 C80.3752689,29.3473528 79.6876476,29.9360288 78.8126935,30.3460098 C77.9438002,30.7650385 77.1134754,30.9725737 76.3261269,30.9725737 C74.3222176,30.9725737 73.3216403,30.050258 73.3216403,28.2039302 C73.3216403,27.5338234 73.537624,26.9293136 73.9883245,26.3954902" id="Fill-3" fill="#0D1010"></path>
                    <path d="M106.380969,33.038312 C107.796189,31.7359864 108.5,30.1085036 108.5,28.1683042 C108.5,26.2230155 108.113636,24.7046724 107.347421,23.6183643 C106.580663,22.5320563 105.257693,21.6923023 103.380682,21.0957093 L98.6911389,19.590938 C97.6411198,19.2680427 97.1234359,18.625645 97.1234359,17.6756203 C97.1234359,16.7267265 97.3735955,16.0509649 97.8619765,15.6619071 C98.3574119,15.265498 99.1458759,15.0715346 100.226826,15.0715346 C101.319171,15.0715346 101.781505,15.044391 106.560042,15.3966919 L106.595857,11.6757616 C105.81716,11.467661 103.188585,11 100.336983,11 C94.5583504,11 91.654654,13.1499965 91.6258938,17.446031 L91.6258938,17.6185057 C91.6258938,19.1803916 91.9775281,20.4968545 92.6949055,21.582597 C93.4057712,22.6689051 94.6142428,23.4815155 96.3170646,24.0289107 L101.308318,25.6128508 C102.595474,26.0290521 103.235795,26.8139535 103.235795,27.9715134 C103.235795,28.1462501 103.222772,28.3243797 103.188585,28.5268255 C102.955248,30.1384746 101.939415,30.9505195 100.145429,30.9505195 C97.8066267,30.9505195 95.3093718,30.6638156 92.6601762,29.520393 L91.5,33.4844843 C93.8263215,34.6855871 96.777228,35 100.358689,35 C102.968271,35 104.973889,34.346858 106.380969,33.038312" id="Fill-4" fill="#0D1010"></path>
                    <path d="M123.290262,35 L123.5,30.680705 L122.833868,30.680705 C120.957464,30.680705 119.684056,30.4316016 119.023274,29.9362127 C118.366239,29.4340609 118.037721,28.4742802 118.037721,27.0534891 L118.037721,15.5000512 L123.357143,15.5000512 L123.357143,11.8029511 L118.037721,11.8029511 L118.037721,2 L112.5,4.43805718 L112.5,27.4626499 C112.5,30.3803156 113.101391,32.3601803 114.576512,33.4152065 C116.046816,34.4679783 118.488229,35 121.897539,35 L123.290262,35" id="Fill-5" fill="#0D1010"></path>
                    <path d="M134.381969,30.2232982 C133.680997,29.7358451 133.340148,28.929455 133.340148,27.7996042 L133.340148,18.2145331 C133.340148,16.1210857 134.725572,15.0715346 137.50468,15.0715346 C138.876339,15.0715346 139.912654,15.3090408 140.610872,15.7987559 C141.311844,16.2884711 141.663156,17.0925991 141.663156,18.2145331 L141.663156,27.7996042 C141.663156,29.9004029 140.277732,30.951085 137.50468,30.951085 C136.115952,30.951085 135.077435,30.704531 134.381969,30.2232982 M142.222612,34.4837068 C145.744542,33.5551707 147.5,31.2462713 147.5,27.5394783 L147.5,18.4740934 C147.5,16.135223 146.618416,14.3019015 144.862958,12.9786527 C143.104747,11.6616244 140.645563,11 137.488161,11 C134.342323,11 131.883139,11.6537075 130.132637,12.9696049 C128.376628,14.2804128 127.5,16.1210857 127.5,18.4740934 L127.5,27.5394783 C127.5,32.5135364 130.841318,35 137.50468,35 C139.331723,35 140.906019,34.8275253 142.222612,34.4837068" id="Fill-6" fill="#0D1010"></path>
                    <path d="M167.052163,34.5159351 L172.5,34.5159351 L172.5,12 L166.713245,12 L166.713245,27.1819363 C166.713245,28.3353939 166.253519,29.2161155 165.351559,29.8075045 C164.439213,30.4044257 163.418086,30.7015033 162.299109,30.7015033 C161.180132,30.7015033 160.228428,30.4392784 159.456023,29.9070836 C158.68635,29.3765484 158.297688,28.5765965 158.297688,27.492291 L158.297688,12 L152.5,12 L152.5,28.4128443 C152.5,30.3131449 153.16089,31.8903668 154.481032,33.134552 C155.802812,34.3737583 157.610012,35 159.894976,35 C161.487345,35 162.931027,34.7355622 164.238049,34.2133253 C165.544524,33.6916416 166.427351,32.9691401 166.879971,32.0452676 L167.052163,34.5159351" id="Fill-7" fill="#0D1010"></path>
                    <g id="Group-13" transform="translate(116.500000, 0.000000)">
                        <path d="M75.4481361,34.5655556 L81.3336335,34.5655556 L81.3336335,18.3572222 C81.3336335,16.3794444 80.7270471,14.7311111 79.5294136,13.4083333 C78.3206806,12.0888889 76.4010262,11.43 73.7643455,11.43 C71.125445,11.43 68.8106492,12.2716667 66.8421571,13.9538889 L66.8421571,11.9544444 L60.9588796,11.9544444 L60.9588796,34.5655556 L66.8421571,34.5655556 L66.8421571,19.0933333 C66.8421571,18.0533333 67.3011204,17.2411111 68.2251518,16.6388889 C69.1486283,16.0455556 70.1958639,15.7411111 71.358534,15.7411111 C74.0817906,15.7411111 75.4481361,16.7172222 75.4481361,18.6688889 L75.4481361,34.5655556" id="Fill-8" fill="#0D1010"></path>
                        <path d="M101.365414,33.2427778 L101.990869,34.5655556 L105.970031,34.5655556 L105.970031,0.253333333 L100.086754,2.65166667 L100.086754,12.2716667 C98.5916545,11.7422222 97.1520524,11.4733333 95.761288,11.4733333 C92.517466,11.4733333 90.1033298,12.1288889 88.5088901,13.4388889 C86.9138953,14.7527778 86.1158429,16.5133333 86.1158429,18.7122222 L86.1158429,27.7433333 C86.1158429,30.0766667 86.8872565,31.8722222 88.425089,33.1433333 C89.9557068,34.4172222 92.2677277,35.0516667 95.3533822,35.0516667 C97.5899267,35.0516667 99.5928272,34.4444444 101.365414,33.2427778 M92.0018953,27.8294444 L92.0018953,18.5822222 C92.0018953,17.4805556 92.3615183,16.6816667 93.0813194,16.2011111 C93.8011204,15.7144444 94.8722199,15.4733333 96.2846283,15.4733333 C97.6948168,15.4733333 98.9645969,15.7355556 100.086754,16.2527778 L100.086754,30.125 C99.0506178,30.7272222 97.7802827,31.0311111 96.2846283,31.0311111 C94.7812042,31.0311111 93.6940105,30.7755556 93.0169424,30.2755556 C92.3404293,29.7677778 92.0018953,28.9533333 92.0018953,27.8294444" id="Fill-10" fill="#0D1010"></path>
                        <path d="M8.85682723,51.3961111 C8.66480628,52.56 8.17975916,53.4577778 7.40002094,54.0872222 C6.66468063,54.6955556 5.75230366,55 4.66344503,55 C3.44749738,55 2.42357068,54.5833333 1.59166492,53.7505556 C1.07997906,53.2383333 0.748659686,52.5811111 0.598816754,51.78 C0.513350785,51.3111111 0.470617801,50.4511111 0.470617801,49.2016667 C0.470617801,47.9516667 0.513350785,47.0922222 0.598816754,46.6222222 C0.748659686,45.8211111 1.07997906,45.1638889 1.59166492,44.6516667 C2.42357068,43.8188889 3.44749738,43.4022222 4.66344503,43.4022222 C5.76284817,43.4022222 6.6885445,43.7122222 7.44053403,44.3311111 C8.19252356,44.9505556 8.66480628,45.8422222 8.85682723,47.0061111 L6.60085864,47.0061111 C6.33336126,45.9277778 5.69347644,45.3883333 4.68009424,45.3883333 C4.00802094,45.3883333 3.48967539,45.6394444 3.12783246,46.1416667 C2.83980105,46.5477778 2.69550785,47.5666667 2.69550785,49.2016667 C2.69550785,50.0877778 2.70605236,50.6422222 2.72769634,50.8672222 C2.80206283,51.5827778 2.9785445,52.1005556 3.25603141,52.4216667 C3.60788482,52.8166667 4.08238743,53.0138889 4.68009424,53.0138889 C5.69347644,53.0138889 6.33336126,52.475 6.60085864,51.3961111 L8.85682723,51.3961111" id="Fill-11" fill="#AFB1AD"></path>
                        <path d="M19.8175602,49.2016667 C19.8175602,48.325 19.8064607,47.77 19.7853717,47.5355556 C19.7209948,46.8305556 19.5450681,46.3172222 19.2575916,45.9972222 C18.8940838,45.5916667 18.4190262,45.3883333 17.8329738,45.3883333 C17.234712,45.3883333 16.7552147,45.5916667 16.3922618,45.9972222 C16.1147749,46.3172222 15.9449529,46.8305556 15.8811309,47.5355556 C15.8594869,47.7272222 15.8483874,48.2827778 15.8483874,49.2016667 C15.8483874,50.12 15.8594869,50.675 15.8811309,50.8672222 C15.9449529,51.5722222 16.1147749,52.0844444 16.3922618,52.4061111 C16.7552147,52.8111111 17.234712,53.0138889 17.8329738,53.0138889 C18.4945026,53.0138889 19.0111832,52.7577778 19.3852356,52.245 C19.673822,51.85 19.8175602,50.835 19.8175602,49.2016667 M22.0413403,49.2016667 C22.0413403,50.4405556 21.9936126,51.3 21.8964921,51.7805556 C21.7588586,52.5705556 21.4280942,53.2277778 20.9053089,53.7505556 C20.0734031,54.5833333 19.0489215,55 17.8329738,55 C16.6059267,55 15.5764503,54.5833333 14.7445445,53.7505556 C14.2323037,53.2388889 13.9015393,52.5811111 13.7522513,51.7805556 C13.6662304,51.3111111 13.6234974,50.4511111 13.6234974,49.2016667 C13.6234974,47.9516667 13.6662304,47.0922222 13.7522513,46.6222222 C13.9015393,45.8211111 14.2323037,45.1644444 14.7445445,44.6516667 C15.5764503,43.8188889 16.6059267,43.4022222 17.8329738,43.4022222 C19.0489215,43.4022222 20.0734031,43.8188889 20.9053089,44.6516667 C21.4280942,45.175 21.7588586,45.8316667 21.8964921,46.6222222 C21.9936126,47.1022222 22.0413403,47.9622222 22.0413403,49.2016667" id="Fill-12" fill="#AFB1AD"></path>
                    </g>
                    <polyline id="Fill-14" fill="#AFB1AD" points="153.5 55 151.345045 55 151.345045 48.588602 149.236868 52.7598149 147.778725 52.7598149 145.654955 48.588602 145.654955 55 143.5 55 143.5 44 145.616243 44 148.48844 49.9484657 151.345045 44 153.5 44 153.5 55"></polyline>
                    <polyline id="Fill-15" fill="#AFB1AD" points="169.5 55 167.34474 55 167.34474 48.588602 165.236251 52.7598149 163.779877 52.7598149 161.65526 48.588602 161.65526 55 159.5 55 159.5 44 161.616015 44 164.487904 49.9484657 167.34474 44 169.5 44 169.5 55"></polyline>
                    <polyline id="Fill-16" fill="#AFB1AD" points="182.5 55 175.5 55 175.5 44 182.5 44 182.5 45.9154895 177.574688 45.9154895 177.574688 48.4964442 181.768579 48.4964442 181.768579 50.4119338 177.574688 50.4119338 177.574688 53.0845105 182.5 53.0845105 182.5 55"></polyline>
                    <g id="Group-20" transform="translate(187.500000, 43.000000)" fill="#AFB1AD">
                        <path d="M6.26835,3.75314286 C6.26835,3.29485714 6.1204,2.92285714 5.82395,2.63885714 C5.52805,2.35542857 5.1425,2.21257143 4.66675,2.21257143 L2.5894,2.21257143 L2.5894,5.29428571 L4.66675,5.29428571 C5.1425,5.29428571 5.52805,5.152 5.82395,4.868 C6.1204,4.584 6.26835,4.21257143 6.26835,3.75314286 M8.9331,11.9011429 L6.37945,11.9011429 L4.17505,7.22228571 L2.5894,7.22228571 L2.5894,11.9011429 L0.385,11.9011429 L0.385,0.169714286 L4.80865,0.169714286 C5.9301,0.169714286 6.82935,0.521142857 7.50585,1.224 C8.15045,1.89428571 8.4733,2.73942857 8.4733,3.76171429 C8.4733,4.54114286 8.26705,5.212 7.85455,5.772 C7.4844,6.26628571 7.00315,6.62285714 6.41135,6.84342857 L8.9331,11.9011429" id="Fill-17"></path>
                        <path d="M21.69915,8.29314286 C21.5094,9.49028571 21.02815,10.4137143 20.2554,11.0611429 C19.5261,11.6868571 18.623,12 17.54335,12 C16.3383,12 15.32355,11.5714286 14.4991,10.7148571 C13.992,10.188 13.66365,9.512 13.51625,8.688 C13.431,8.20571429 13.38975,7.32114286 13.38975,6.036 C13.38975,4.75028571 13.431,3.86628571 13.51625,3.38285714 C13.66365,2.55885714 13.992,1.88285714 14.4991,1.356 C15.32355,0.499428571 16.3383,0.0708571429 17.54335,0.0708571429 C18.6329,0.0708571429 19.5503,0.389714286 20.2961,1.02628571 C21.04135,1.66342857 21.5094,2.58057143 21.69915,3.77771429 L19.46285,3.77771429 C19.19885,2.66857143 18.56415,2.11371429 17.55985,2.11371429 C16.89435,2.11371429 16.3812,2.372 16.0215,2.88857143 C15.7366,3.30628571 15.5936,4.35428571 15.5936,6.036 C15.5936,6.94742857 15.6035,7.51771429 15.6255,7.74914286 C15.69865,8.48514286 15.87355,9.01771429 16.1491,9.348 C16.49725,9.75428571 16.96805,9.95714286 17.55985,9.95714286 C18.56415,9.95714286 19.19885,9.40285714 19.46285,8.29314286 L21.69915,8.29314286" id="Fill-19"></path>
                    </g>
                    <polyline id="Fill-21" fill="#AFB1AD" points="221.5 55 214.5 55 214.5 44 221.5 44 221.5 45.9154895 216.574017 45.9154895 216.574017 48.4964442 220.768634 48.4964442 220.768634 50.4119338 216.574017 50.4119338 216.574017 53.0845105 221.5 53.0845105 221.5 55"></polyline>
                    <polyline id="Fill-22" fill="#0D1010" points="228.331081 7 228.331081 2.12324829 226.5 2.12324829 226.5 1 231.5 1 231.5 2.12324829 229.676239 2.12324829 229.676239 7 228.331081 7"></polyline>
                    <polyline id="Fill-23" fill="#0D1010" points="238.116819 7 238.116819 2.79805965 236.293455 7 235.695526 7 233.876222 2.79805965 233.876222 7 232.5 7 232.5 1 234.427755 1 235.99478 4.6241466 237.563546 1 239.5 1 239.5 7 238.116819 7"></polyline>
                </g>
            </g>
        </g>
    </g>
</svg>