<?xml version="1.0" encoding="UTF-8"?>
<svg width="26px" height="27px" viewBox="0 0 26 27" version="1.1" xmlns="http://www.w3.org/2000/svg" xmlns:xlink="http://www.w3.org/1999/xlink">
    <!-- Generator: sketchtool 52.5 (67469) - http://www.bohemiancoding.com/sketch -->
    <title>B9E83BBC-394D-4B11-B322-C2B8B27F0AAB</title>
    <desc>Created with sketchtool.</desc>
    <g id="Design" stroke="none" stroke-width="1" fill="none" fill-rule="evenodd">
        <g id="Website-Design" transform="translate(-1402.000000, -213.000000)" fill="#FFFFFF" fill-rule="nonzero" stroke="#FFFFFF" stroke-width="0.5">
            <g id="Contact" transform="translate(1390.000000, 98.000000)">
                <g id="Group-8" transform="translate(12.000000, 29.000000)">
                    <g id="np_phone_787624_000000" transform="translate(13.000000, 99.500000) scale(-1, 1) rotate(-270.000000) translate(-13.000000, -99.500000) translate(0.500000, 86.500000)">
                        <path d="M22.8925426,19.229655 C22.4256733,19.953405 21.8711648,20.6380716 21.2257523,21.2695994 C18.8913488,23.5536827 15.8351076,24.6940437 12.7752609,24.6940437 C9.71456256,24.6929587 6.65925825,23.5525438 4.32363396,21.2684883 C1.98923043,18.984405 0.823746247,15.994044 0.823746247,13.0001552 C0.824855151,10.0065442 1.98928721,7.0159887 4.32363396,4.7318221 C6.65803749,2.44773883 9.71427867,1.30737775 12.7741253,1.30737775 C15.8336881,1.30846275 18.890128,2.44779439 21.2246167,4.7318221 C22.6507471,6.12721095 23.6388522,7.78404423 24.1944679,9.54626641 C24.2610078,9.75893862 24.4916801,9.87829417 24.709032,9.81319418 C24.9263839,9.74809418 25.0483746,9.52238863 24.9818404,9.30972197 C24.3885515,7.42605536 23.3294721,5.6519443 21.8067314,4.16333323 C19.3148783,1.7208333 16.0433293,0.5 12.7753858,0.5 C9.50602286,0.5 6.23467259,1.72069441 3.74176911,4.16111101 C1.24767327,6.60144427 -0.00113481601,9.80249973 7.73774254e-07,12.9999996 C-0.00110812965,16.1977773 1.2475881,19.3986106 3.74176911,21.8388883 C6.23472936,24.2792215 9.50630675,25.4999993 12.7753858,25.4999993 C16.0436132,25.5010843 19.3149635,24.2793049 21.8090026,21.8388883 C22.497681,21.165055 23.0920771,20.4326383 23.591112,19.6578883 L23.5922209,19.6568033 C24.0136383,18.9981645 24.2431978,18.25272 24.2431978,17.5105256 C24.2454159,16.6424701 23.9215987,15.7733312 23.2329203,15.1016646 C22.8946849,14.7707201 22.5187479,14.4961924 22.1061881,14.3019702 C21.8267252,14.1706757 21.5295356,14.0817007 21.221223,14.0350424 C21.0127344,11.2659314 18.6595028,9.08504253 15.7749344,9.08504253 L9.61464372,9.08504253 C6.593691,9.08504253 4.14734671,11.4776258 4.14734671,14.4344868 C4.14734671,14.541909 4.19059564,14.6439063 4.26822456,14.7198479 C4.34585348,14.7958035 4.45009494,14.8381201 4.55987241,14.8381201 L9.61466643,14.8381201 C9.72445525,14.8381201 9.82869956,14.7958035 9.90631428,14.7198479 C9.9839432,14.6438924 10.0271921,14.5418979 10.0271921,14.4344868 L10.0260832,12.3641813 L15.3613679,12.3641813 L15.3613679,14.4334035 C15.3613679,14.5408257 15.4046169,14.6428229 15.4822458,14.7187646 C15.5598747,14.7947201 15.6641162,14.8370368 15.7738936,14.8370368 L20.8286877,14.8370368 C20.8730466,14.8370368 20.9162956,14.8283563 20.9562201,14.8153354 C21.2279184,14.8381221 21.4918494,14.9097354 21.7480384,15.0301799 C22.0618871,15.1766632 22.3646353,15.3947632 22.6485327,15.672541 C23.1764117,16.1901243 23.4159359,16.8324854 23.4170431,17.510652 C23.4170431,18.0889853 23.23628,18.6912075 22.8913786,19.2283186 L22.8925426,19.229655 Z M16.186601,14.0310441 L16.186601,11.9618219 C16.186601,11.8554858 16.1422421,11.7513191 16.0657232,11.6764608 C15.9892043,11.6015913 15.8827428,11.5581886 15.7740753,11.5581886 L9.61492024,11.5581886 C9.50624146,11.5581886 9.39977991,11.6015913 9.32327239,11.6764608 C9.24675351,11.7513302 9.20239454,11.8554969 9.20239454,11.9618219 L9.20239454,14.0310441 L4.9938988,14.0310441 C5.09259858,12.9362108 5.58275888,11.9552941 6.33241848,11.2218775 C7.17301042,10.3994053 8.33080099,9.89265528 9.61597634,9.89265528 L15.7751314,9.89265528 C17.0593131,9.89265528 18.2171037,10.3993775 19.0586893,11.2218775 C19.8083489,11.9553774 20.2985262,12.9362941 20.397209,14.0310441 L16.186601,14.0310441 Z" id="Shape"></path>
                    </g>
                </g>
            </g>
        </g>
    </g>
</svg>